<svg width="9" height="6" viewBox="0 0 9 6" fill="none" xmlns="http://www.w3.org/2000/svg">
<path d="M8.13372 0.821974L7.77272 0.460974C7.715 0.403966 7.64661 0.3589 7.57145 0.328356C7.49629 0.297813 7.41585 0.282391 7.33472 0.282974C7.25406 0.281392 7.17392 0.296372 7.09927 0.326988C7.02462 0.357604 6.95705 0.403206 6.90072 0.460974L4.55872 2.80297L2.21772 0.459974C2.1614 0.402206 2.09382 0.356604 2.01917 0.325988C1.94452 0.295372 1.86439 0.280392 1.78372 0.281974C1.7026 0.281391 1.62215 0.296813 1.547 0.327356C1.47184 0.3579 1.40344 0.402966 1.34572 0.459974L0.988723 0.820974C0.929814 0.877739 0.883178 0.945988 0.851701 1.0215C0.820224 1.09701 0.804576 1.17817 0.805723 1.25997C0.805723 1.43297 0.866723 1.57797 0.988723 1.69297L4.12572 4.82997C4.24072 4.95197 4.38572 5.01297 4.55872 5.01297C4.64051 5.014 4.72164 4.9983 4.79713 4.96683C4.87262 4.93536 4.94089 4.88879 4.99772 4.82997L8.13372 1.69297C8.19155 1.63685 8.23726 1.56947 8.26805 1.495C8.29883 1.42053 8.31404 1.34055 8.31272 1.25997C8.31331 1.17861 8.29779 1.09794 8.26707 1.0226C8.23635 0.947253 8.19103 0.878731 8.13372 0.820974V0.821974Z" fill="white"/>
</svg>
