<svg width="28" height="26" viewBox="0 0 28 26" fill="none" xmlns="http://www.w3.org/2000/svg">
<path d="M27.4903 3.314H7.2157L6.63535 1.13486e-06H1.49975C0.669949 -0.000998865 0 0.659001 0 1.473V2.945H4.11031L6.75447 18.052C6.78849 18.2186 6.879 18.3689 7.01122 18.4784C7.14344 18.5879 7.30956 18.6502 7.48246 18.655H25.2412C26.07 18.655 26.742 17.996 26.742 17.181V15.709H9.38641L9.0209 13.621H22.7426C24.3982 13.621 25.9621 12.321 26.2349 10.717L27.4903 3.314ZM12.1202 25.559C12.8078 25.559 13.4673 25.2907 13.9535 24.8131C14.4398 24.3356 14.7129 23.6879 14.7129 23.0125C14.7129 22.3371 14.4398 21.6894 13.9535 21.2119C13.4673 20.7343 12.8078 20.466 12.1202 20.466C11.4325 20.466 10.7731 20.7343 10.2868 21.2119C9.80059 21.6894 9.52743 22.3371 9.52743 23.0125C9.52743 23.6879 9.80059 24.3356 10.2868 24.8131C10.7731 25.2907 11.4325 25.559 12.1202 25.559ZM18.5275 23.012C18.5275 23.6874 18.8006 24.3351 19.2868 24.8126C19.7731 25.2902 20.4326 25.5585 21.1202 25.5585C21.8078 25.5585 22.4673 25.2902 22.9535 24.8126C23.4398 24.3351 23.7129 23.6874 23.7129 23.012C23.7198 22.6733 23.6578 22.3368 23.5305 22.0219C23.4033 21.7071 23.2134 21.4203 22.972 21.1785C22.7305 20.9366 22.4424 20.7444 22.1244 20.6133C21.8065 20.4821 21.4651 20.4145 21.1202 20.4145C20.7753 20.4145 20.4339 20.4821 20.1159 20.6133C19.798 20.7444 19.5098 20.9366 19.2684 21.1785C19.027 21.4203 18.8371 21.7071 18.7099 22.0219C18.5826 22.3368 18.5206 22.6733 18.5275 23.012Z" fill="white"/>
</svg>
