<svg width="44" height="44" viewBox="0 0 44 44" fill="none" xmlns="http://www.w3.org/2000/svg">
<path d="M44 22C44 9.87067 34.1293 0 22 0C9.87066 0 0 9.87067 0 22C0 28.4079 2.75587 34.1821 7.1412 38.2067L7.12067 38.2243L7.83347 38.8256C7.8804 38.8652 7.93027 38.8989 7.9772 38.9356C8.48068 39.352 9.00235 39.746 9.54067 40.1163C9.966 40.4096 10.406 40.6883 10.8533 40.9552L11.1467 41.1239C11.638 41.4025 12.1396 41.6665 12.6515 41.9085L12.7659 41.9584C14.4379 42.7357 16.2213 43.3077 18.0869 43.6436L18.2336 43.67C18.8159 43.7716 19.402 43.8494 19.9907 43.9032L20.2077 43.9193C20.7988 43.9692 21.3957 44 22 44C22.5999 44 23.1909 43.9692 23.7776 43.9223C23.8509 43.9149 23.9272 43.9105 24.0005 43.9047C24.5887 43.8504 25.1695 43.7727 25.7429 43.6759L25.8925 43.648C27.7036 43.324 29.4664 42.7721 31.1388 42.0053L31.3221 41.9203C32.389 41.4193 33.4141 40.8337 34.3875 40.1691C34.5341 40.0693 34.6793 39.9637 34.826 39.8567C35.178 39.6044 35.5212 39.3433 35.8571 39.0705C35.9304 39.0104 36.0111 38.9591 36.0844 38.896L36.8163 38.2859L36.7943 38.2668C39.0646 36.2088 40.8787 33.6981 42.1197 30.8965C43.3608 28.0948 44.0013 25.0642 44 22ZM1.59867 22C1.59867 10.7507 10.7507 1.59867 22 1.59867C33.2493 1.59867 42.4013 10.7507 42.4013 22C42.4013 28.0617 39.7408 33.5119 35.5285 37.2504C35.2939 37.0891 35.0563 36.9424 34.8143 36.8207L28.0412 33.4341C27.7445 33.2869 27.4949 33.0595 27.3208 32.7777C27.1466 32.496 27.0547 32.1711 27.0556 31.8399V29.4741C27.2125 29.2805 27.3783 29.062 27.5484 28.8215C28.4364 27.5609 29.141 26.1807 29.6413 24.7221C30.1405 24.4873 30.5625 24.115 30.8578 23.6491C31.1531 23.1831 31.3096 22.6426 31.3089 22.0909V19.2573C31.3089 18.5636 31.0552 17.8904 30.6005 17.3609V13.6268C30.6416 13.2103 30.7883 10.868 29.0943 8.93493C27.6173 7.25267 25.2325 6.40053 22 6.40053C18.7675 6.40053 16.3812 7.2512 14.9072 8.93493C13.2117 10.8665 13.3584 13.2117 13.3995 13.6253V17.3595C12.9448 17.8875 12.6911 18.5621 12.6911 19.2544V22.0909C12.6911 22.9709 13.0856 23.7923 13.7617 24.3467C14.41 26.8855 15.7447 28.8068 16.2375 29.458V31.7739C16.2375 32.4265 15.8811 33.0264 15.3076 33.3403L8.98187 36.7899C8.77378 36.9045 8.57295 37.0319 8.38053 37.1712C6.24638 35.2619 4.53919 32.9236 3.37055 30.3094C2.20191 27.6951 1.59812 24.8636 1.59867 22Z" fill="black"/>
</svg>
