<?xml version="1.0" encoding="UTF-8"?>
<svg id="_Слой_2" data-name="Слой 2" xmlns="http://www.w3.org/2000/svg" viewBox="0 0 1310.58 798">
  <defs>
    <style>
      .cls-1 {
        stroke-width: 0px;
        fill:#FFC700
      }
    </style>
  </defs>
  <g id="_Слой_1-2" data-name="Слой 1">
    <g>
      <path class="cls-1" d="m648.37,731.72c-25.28-32.16-43.61-71.31-54.47-116.37-3.38-14.02-6.22-30.22-8.51-48.71-12.73,13.15-27,24.9-42.56,34.93-.76.58-1.52,1.16-2.29,1.72-35.26,25.88-79.89,39-132.66,39-35.72,0-67.31-6.99-94.51-20.84-85.65-35.91-145.58-118.47-145.58-214.58,0-129.1,108.09-233.75,241.43-233.75,65.69,0,125.23,25.41,168.76,66.62V31.32C527.38,10.52,470.32,0,407.87,0c-57.03,0-110.93,9.64-160.2,28.65-49.26,19.01-93.51,47.4-131.52,84.38-38.37,38.03-67.63,81.4-86.98,128.91C9.81,289.46,0,342.3,0,399s10.08,106.96,29.95,156.54c19.87,49.6,48.17,93.15,84.12,129.44,37.67,38.02,81.03,66.67,128.9,85.15,47.89,18.49,103.37,27.87,164.9,27.87,96.91,0,177.77-21.93,241.34-65.27-.24-.3-.5-.59-.74-.9l-.1-.12Z"/>
      <path class="cls-1" d="m1103.45.01v377.83c0,55.54-1.39,95.44-4.17,119.66-2.79,24.24-7.48,44.49-14.09,60.76-8.35,19.82-22.35,34.94-42,45.37-19.66,10.44-43.75,15.65-72.26,15.65s-52.7-5.22-72.52-15.65c-19.83-10.43-33.74-25.55-41.74-45.37-6.61-16.27-11.31-36.52-14.09-60.76-2.79-24.23-4.17-64.12-4.17-119.66V.01h-207.66v327.38h-217.55v158.95h219.16c2.24,47.94,6.83,85.63,13.78,113.05,10.26,40.51,27.21,75.09,50.87,103.74,26.43,31.49,62.35,55.11,107.74,70.84,45.39,15.74,100.78,23.61,166.18,23.61s120.35-7.88,165.92-23.61c45.56-15.74,81.39-39.35,107.48-70.84,24-28.66,41.04-63.23,51.13-103.74,10.08-40.5,15.13-103.39,15.13-188.65V.01h-207.14Z"/>
    </g>
  </g>
</svg>